<svg id="Capa_1" data-name="Capa 1" xmlns="http://www.w3.org/2000/svg" viewBox="0 0 737.96 161.99"><defs><style>.cls-1{fill:#fe3b1f;}</style></defs><title>Logo Universia portales</title><path class="cls-1" d="M624.77,86.37h-.9l-1.66,2.38h-9.08V32.16h10.74V51h.9a15.24,15.24,0,0,1,9.66-3.21c11,0,17.23,7.9,17.23,20.94s-6.31,20.91-17,20.91A15.84,15.84,0,0,1,624.77,86.37Zm16.07-17.63c0-7.71-3.2-11.89-8.93-11.89s-9,4.11-9,11.89c0,7.93,3.28,11.9,9,11.9S640.84,76.46,640.84,68.74Z"/><path class="cls-1" d="M659,48.74h9.91l.73,2.52h.9a15.65,15.65,0,0,1,10.16-3.46,16.53,16.53,0,0,1,2.31.11v11h-.58a17.33,17.33,0,0,0-5.51-1.08,7.79,7.79,0,0,0-5.55,1.81c-1.41,1.33-1.63,3.6-1.63,7.78V88.75H659Z"/><path class="cls-1" d="M71.31,50v37.6q0,16.28,13.63,16.27T98.56,87.57V50h16V87.9a40,40,0,0,1-2.07,13.59,22.82,22.82,0,0,1-6.92,9.21q-8.13,6.66-20.68,6.66T64.32,110.7a23.22,23.22,0,0,1-7.06-9.21q-2-4.58-2-13.59V50Z"/><path class="cls-1" d="M129.19,50h16.12V56q8.41-7.86,19-7.87,12.14,0,18.91,7.2,5.85,6.12,5.85,20v40.16H172.92V78.89q0-9.69-2.86-13.38t-10.13-3.77q-8,0-11.34,5t-3.28,17.15v31.61H129.19Z"/><rect class="cls-1" x="202.79" y="49.97" width="16.05" height="65.51"/><path class="cls-1" d="M369.78,86.29H320q.64,8.07,5.56,12.84a17.52,17.52,0,0,0,12.63,4.71,17.15,17.15,0,0,0,9.91-2.69q3.86-2.69,8.78-10l13.55,7.13a52.73,52.73,0,0,1-6.63,8.67,36.58,36.58,0,0,1-7.49,5.92,31.75,31.75,0,0,1-8.64,3.36,44.24,44.24,0,0,1-10.05,1.08q-15.56,0-25-9.42t-9.41-25.15q0-15.54,9.13-25.15t24.39-9.49q15.33,0,24.25,9.22t8.85,25.35ZM353.3,73.91q-3.36-12.1-16.19-12.11a17,17,0,0,0-5.49.88,15.59,15.59,0,0,0-8.28,6.19,17,17,0,0,0-2.28,5Z"/><path class="cls-1" d="M382,50h16v5.85a30.38,30.38,0,0,1,7.85-6,18.86,18.86,0,0,1,8.27-1.68,27.1,27.1,0,0,1,13.27,3.9l-7.35,13.86a15.9,15.9,0,0,0-8.92-3.09q-13.12,0-13.12,18.69v34H382Z"/><path class="cls-1" d="M474,61.13l-13.27,6.66q-3.15-6-7.78-6.05a5.47,5.47,0,0,0-3.78,1.41,4.39,4.39,0,0,0-1.57,3.5q0,3.76,9.27,7.46,12.78,5.19,17.2,9.55t4.42,11.77a20.14,20.14,0,0,1-7.42,15.88,26.2,26.2,0,0,1-17.41,6q-17.46,0-24.75-16.08l13.7-6a27.85,27.85,0,0,0,4.35,6,10.24,10.24,0,0,0,7,2.56q8.13,0,8.13-7c0-2.7-2.09-5.2-6.28-7.54q-2.42-1.14-4.85-2.22c-1.61-.71-3.26-1.45-4.92-2.21q-7-3.24-9.84-6.46a15.32,15.32,0,0,1-3.64-10.56,18.15,18.15,0,0,1,6.21-14.12,22.46,22.46,0,0,1,15.4-5.59q13.35,0,19.84,13"/><rect class="cls-1" x="490.73" y="49.97" width="16.05" height="65.51"/><path class="cls-1" d="M559.61,91.08c0,3.78-.52,14.51-14.88,14.51-6,0-11.26-1.58-11.26-8s5.18-8.18,10.87-9.28,12.16-1.09,15.27-3.65ZM537.07,71.8c.65-6.82,5.17-9.51,12.16-9.51,6.47,0,11.9,1.1,11.9,8.54,0,7.08-10.48,6.71-21.73,8.3S516.63,84,516.63,98.28c0,12.93,10.09,18.91,22.77,18.91,8.15,0,16.69-2.08,22.51-7.81a24.31,24.31,0,0,0,1.29,6.09h18.63c-1.68-2.56-2.33-8.29-2.33-14V68.64c0-15.13-16-17.93-29.37-17.93-15,0-30.4,4.88-31.43,21.09Z"/><polygon class="cls-1" points="231.8 66.14 270.82 83.02 231.8 99.97 231.8 116.91 294.06 88.61 294.02 77.64 231.8 49.12 231.8 66.14"/></svg>